<?xml version="1.0" encoding="utf-8"?><svg xmlns="http://www.w3.org/2000/svg" xmlns:xlink="http://www.w3.org/1999/xlink"><symbol viewBox="0 0 16 16" class="bi bi-box-arrow-in-left" fill="currentColor" id="box-arrow-in-left" xmlns="http://www.w3.org/2000/svg"><path fill-rule="evenodd" d="M10 3.5a.5.5 0 0 0-.5-.5h-8a.5.5 0 0 0-.5.5v9a.5.5 0 0 0 .5.5h8a.5.5 0 0 0 .5-.5v-2a.5.5 0 0 1 1 0v2A1.5 1.5 0 0 1 9.5 14h-8A1.5 1.5 0 0 1 0 12.5v-9A1.5 1.5 0 0 1 1.5 2h8A1.5 1.5 0 0 1 11 3.5v2a.5.5 0 0 1-1 0v-2z"/><path fill-rule="evenodd" d="M4.146 8.354a.5.5 0 0 1 0-.708l3-3a.5.5 0 1 1 .708.708L5.707 7.5H14.5a.5.5 0 0 1 0 1H5.707l2.147 2.146a.5.5 0 0 1-.708.708l-3-3z"/></symbol><symbol viewBox="0 0 16 16" class="bi bi-volume-mute-fill" fill="currentColor" id="volume-mute-fill" xmlns="http://www.w3.org/2000/svg"><path fill-rule="evenodd" d="M6.717 3.55A.5.5 0 017 4v8a.5.5 0 01-.812.39L3.825 10.5H1.5A.5.5 0 011 10V6a.5.5 0 01.5-.5h2.325l2.363-1.89a.5.5 0 01.529-.06zm7.137 2.096a.5.5 0 010 .708l-4 4a.5.5 0 01-.708-.708l4-4a.5.5 0 01.708 0z"/><path fill-rule="evenodd" d="M9.146 5.646a.5.5 0 000 .708l4 4a.5.5 0 00.708-.708l-4-4a.5.5 0 00-.708 0z"/></symbol><symbol viewBox="0 0 16 16" class="bi bi-volume-up-fill" fill="currentColor" id="volume-up-fill" xmlns="http://www.w3.org/2000/svg"><path d="M11.536 14.01A8.473 8.473 0 0014.026 8a8.473 8.473 0 00-2.49-6.01l-.708.707A7.476 7.476 0 0113.025 8c0 2.071-.84 3.946-2.197 5.303l.708.707z"/><path d="M10.121 12.596A6.48 6.48 0 0012.025 8a6.48 6.48 0 00-1.904-4.596l-.707.707A5.483 5.483 0 0111.025 8a5.483 5.483 0 01-1.61 3.89l.706.706z"/><path d="M8.707 11.182A4.486 4.486 0 0010.025 8a4.486 4.486 0 00-1.318-3.182L8 5.525A3.489 3.489 0 019.025 8 3.49 3.49 0 018 10.475l.707.707z"/><path fill-rule="evenodd" d="M6.717 3.55A.5.5 0 017 4v8a.5.5 0 01-.812.39L3.825 10.5H1.5A.5.5 0 011 10V6a.5.5 0 01.5-.5h2.325l2.363-1.89a.5.5 0 01.529-.06z"/></symbol><symbol viewBox="0 0 16 16" class="bi bi-chat-fill" fill="currentColor" id="chat-fill" xmlns="http://www.w3.org/2000/svg"><path d="M8 15c4.418 0 8-3.134 8-7s-3.582-7-8-7-8 3.134-8 7c0 1.76.743 3.37 1.97 4.6-.097 1.016-.417 2.13-.771 2.966-.079.186.074.394.273.362 2.256-.37 3.597-.938 4.18-1.234A9.06 9.06 0 0 0 8 15z"/></symbol><symbol viewBox="0 0 16 16" class="bi bi-camera-video" fill="currentColor" id="camera-video" xmlns="http://www.w3.org/2000/svg"><path fill-rule="evenodd" d="M0 5a2 2 0 0 1 2-2h7.5a2 2 0 0 1 1.983 1.738l3.11-1.382A1 1 0 0 1 16 4.269v7.462a1 1 0 0 1-1.406.913l-3.111-1.382A2 2 0 0 1 9.5 13H2a2 2 0 0 1-2-2V5zm11.5 5.175l3.5 1.556V4.269l-3.5 1.556v4.35zM2 4a1 1 0 0 0-1 1v6a1 1 0 0 0 1 1h7.5a1 1 0 0 0 1-1V5a1 1 0 0 0-1-1H2z"/></symbol><symbol viewBox="0 0 16 16" class="bi bi-camera-video-off" fill="currentColor" id="camera-video-off" xmlns="http://www.w3.org/2000/svg"><path fill-rule="evenodd" d="M10.961 12.365a1.99 1.99 0 0 0 .522-1.103l3.11 1.382A1 1 0 0 0 16 11.731V4.269a1 1 0 0 0-1.406-.913l-3.111 1.382A2 2 0 0 0 9.5 3H4.272l.714 1H9.5a1 1 0 0 1 1 1v6a1 1 0 0 1-.144.518l.605.847zM1.428 4.18A.999.999 0 0 0 1 5v6a1 1 0 0 0 1 1h5.014l.714 1H2a2 2 0 0 1-2-2V5c0-.675.334-1.272.847-1.634l.58.814zM15 11.73l-3.5-1.555v-4.35L15 4.269v7.462zm-4.407 3.56l-10-14 .814-.58 10 14-.814.58z"/></symbol></svg>